<?xml version="1.0" encoding="utf-8"?>
<!-- Generator: Adobe Illustrator 26.3.1, SVG Export Plug-In . SVG Version: 6.00 Build 0)  -->
<svg version="1.1"
	 id="svg2" xmlns:dc="http://purl.org/dc/elements/1.1/" xmlns:svg="http://www.w3.org/2000/svg" xmlns:cc="http://creativecommons.org/ns#" xmlns:rdf="http://www.w3.org/1999/02/22-rdf-syntax-ns#"
	 xmlns="http://www.w3.org/2000/svg" xmlns:xlink="http://www.w3.org/1999/xlink" x="0px" y="0px" viewBox="0 0 1080 1080"
	 style="enable-background:new 0 0 1080 1080;" xml:space="preserve">
<style type="text/css">
	.st0{clip-path:url(#SVGID_00000141450909181373326610000009200739573522385821_);}
	.st1{fill:#FFFFFF;}
</style>
<g id="g10" transform="matrix(1.3333333,0,0,-1.3333333,0,1440)">
	<g id="g14">
		<g>
			<defs>
				<rect id="SVGID_1_" x="-869.2" y="-86.7" width="2560" height="1440"/>
			</defs>
			<clipPath id="SVGID_00000132064937823340781200000013493097251585687192_">
				<use xlink:href="#SVGID_1_"  style="overflow:visible;"/>
			</clipPath>
			<g id="g16" style="clip-path:url(#SVGID_00000132064937823340781200000013493097251585687192_);">
				<g id="g22" transform="translate(955.4624,428.1191)">
					<path id="path24" d="M-542.8-107.8c-84.3,0.2-160.8,24.4-228,75.7c-71.4,54.5-115.5,126.1-132.8,214.3
						c-5.6,28.8-7.8,57.8-5.8,87.1c5.1,74.5,31.3,140.6,79,198.2c55,66.5,124.8,108.4,209.1,126.2c33.4,7.1,67.2,9.2,101.3,6.9
						c46.6-3.1,91.2-13.4,133.4-33.5c60.6-28.9,110.8-70.3,148.5-126.1c30.4-45.1,50-94.9,56.1-148.9
						c12.4-110.1-18.5-206.7-95-287.6C-327.9-49.4-390.5-83-462.5-99.5C-487.7-105.3-511.4-107.7-542.8-107.8"/>
				</g>
				<g id="g26" transform="translate(968.9824,663.7256)">
					<path id="path28" class="st1" d="M-525.1,200.9c-19.6,0-33.7-0.1-47.7,0.1c-5.1,0.1-10.3,0.6-15.4,1.6
						c-7.3,1.3-10.4,6.4-7.3,12.9c8.9,18.5,22,32.2,43.1,36.3c12.7,2.5,25.7,3,38.6,3.7c24.8,1.2,49.5,0.2,74-3.8
						c11.7-1.9,23.1-5,34-9.5c33.2-13.7,51.8-39.1,58.3-73.9c3.2-17.3,3.3-34.5-0.7-51.7c-4.1-17.4-13-32-25.8-44.4
						c-3.7-3.6-7.6-7-11.1-10.8c-3.6-3.9-3.2-7.3,1.5-9.9c4.1-2.4,8.6-4.3,13-6.2c9.9-4.3,19.3-9.2,28.1-15.4
						c12.6-9,22.4-20.3,29.2-34.2c8.7-17.8,13.7-36.7,14.4-56.4c2.2-57-35.2-109.5-89.6-126c-14.5-4.4-29.4-7.3-44.6-7.5
						c-2.6,0-5.2-0.1-7.7,0.2c-4,0.4-6.6,2.6-7.1,5.8c-0.6,3.4,1.1,5.7,3.8,7.4c2.8,1.7,5.7,3.4,8.6,5c6.1,3.5,12.2,6.9,18.2,10.5
						c17.3,10.4,29.9,25.1,37.9,43.6c7.2,16.8,11.5,34.3,11.8,52.6c0.3,22.9-6.4,43.6-19,62.6c-5,7.5-11.6,13.3-19.4,17.9
						c-9.3,5.4-19.2,9.3-29.8,11.6c-3.6,0.8-7.3,1.6-10.6,3c-4.5,1.9-5.7,7.3-2.7,11.1c2.1,2.6,4.5,4.9,7.1,6.9
						c34.7,27.3,43.8,77.9,24.9,117.7c-5.9,12.5-15,21.7-27.6,27.5c-14.2,6.6-29.1,10.5-44.9,10.9
						C-503.4,200.5-517,200.7-525.1,200.9"/>
				</g>
				<g id="g30" transform="translate(896.9785,583.8437)">
					<path id="path32" class="st1" d="M-619.4,96.2c-4-13.7-1.8-16.7,12.2-17.3c8.5-0.4,21-0.8,29.4-0.8c3.9,0,18.5,0,23.1-2.3
						c6.5-3.3,5.5-4.1,6.9-6.9c3.2-6.4,2.3-25.4,0-32.3c-1.6-4.9-2.3-6.9-6.9-9.2c-6.5-3.3-38.8-2-41.6-2v0c-11.1,0-22.2,0-33.2,0
						c-2.6,0-5.2-0.1-7.7-0.3c-4-0.4-6.9-2.5-8.3-6.3c-1-2.8-1.8-5.6-2.5-8.5c-6.3-24.7-13.5-44.3-22.1-68.3
						c-2.6-7.3-7.5-18.8-11.5-25.4c-9.3-15.2-20.8-25.5-38-29.9c-4.7-1.2-9.4-1.9-14.3-1.2c-6.7,1-10.4,5.4-10.3,12.2
						c0.1,3,1,5.8,2,8.6c44.3,124.5,68.7,207.1,113.7,331.4c0,0,23.7,62.3,41.6,80.9c4.1,4.3,16.2,9.6,20.9,11.4
						c5.4,2.1,12.6,2.6,23,2.5c27.8-0.5,11.5-11.5,2.3-23.1c-7.2-9.1-18.5-39.3-18.5-39.3"/>
				</g>
				<g id="g34" transform="translate(936.9058,573.3252)">
					<path id="path36" class="st1" d="M-567.1,82.4c0,51.7,0,103.3,0,155c0,6.3,0.1,12.6,0.8,18.8c1,9.4,5,13.8,14.4,15.6
						c12.1,2.3,24.2,2.1,36.3-0.2c7.2-1.3,10.8-5.8,12-12.6c1.8-9.5,2.2-19,2.2-28.6c0-85.2,0-170.5,0-255.7c0-4.4-0.1-8.9,0.2-13.3
						c0.5-7.3,2.8-9.9,10-10.9c4-0.6,8.1-0.6,12.1-0.6c17-0.1,34,0,50.9-0.1c4,0,8.2-0.1,12.1-1.1c8.3-2.1,10.4-9.7,4.6-16.2
						c-1.7-1.9-3.8-3.5-5.9-5c-27.6-20.2-58.3-31.1-92.7-31.3c-11.8-0.1-23.6,0-35.4,0c-2.6,0-5.2-0.1-7.7,0.2
						c-8.7,1-12.3,4.5-13.3,13.4c-0.5,5.1-0.6,10.3-0.6,15.5C-567.1-22.3-567.1,30-567.1,82.4"/>
				</g>
			</g>
		</g>
	</g>
	<g id="g46">
		<g>
			<defs>
				<rect id="SVGID_00000007421232130310229420000007027986315894322325_" x="-869.2" y="-86.7" width="2560" height="1440"/>
			</defs>
			<clipPath id="SVGID_00000080201754646375871270000005787080759264056710_">
				<use xlink:href="#SVGID_00000007421232130310229420000007027986315894322325_"  style="overflow:visible;"/>
			</clipPath>
		</g>
	</g>
</g>
</svg>
